<svg width="240" height="372" viewBox="0 0 240 372" fill="none" xmlns="http://www.w3.org/2000/svg">
  <path d="M191.565 209.1L193.665 205.3L226.465 186.2L239.365 209.1L238.765 211.9L204.665 231.7L191.565 209.1Z" fill="#FF5ED2"/>
  <path d="M225.794 189.358L191.587 209.108L204.587 231.624L238.794 211.874L225.794 189.358Z" fill="#FF6ED9"/>
  <path d="M57.5655 356.6C57.5655 356.6 51.9654 322.3 57.2654 288.7C62.6654 254.6 71.7654 219 71.7654 219C71.7654 219 100.565 225 121.065 221.2C141.565 217.4 166.065 210.5 166.065 210.5C166.065 210.5 170.265 229.8 172.665 252.8C174.965 275.8 173.465 272.3 176.765 283.6C180.065 294.9 191.665 327.9 195.965 337.6C200.365 347.3 205.065 359.3 205.065 359.3H189.765C189.765 359.3 159.565 327.8 146.765 308.8C133.965 289.8 118.165 256.1 118.165 256.1C118.165 256.1 101.165 291.3 94.2654 305.9C87.3654 320.6 70.0655 359.9 70.0655 359.9L57.5655 356.6Z" fill="#4E3734"/>
  <path d="M120.265 91C136.392 91 149.465 77.9267 149.465 61.8C149.465 45.6733 136.392 32.6 120.265 32.6C104.139 32.6 91.0655 45.6733 91.0655 61.8C91.0655 77.9267 104.139 91 120.265 91Z" fill="#DF8E89"/>
  <path d="M145.265 77C147.965 72.6 149.565 67.3 149.565 61.8C149.565 45.6 136.465 32.6 120.365 32.6C114.365 32.6 108.865 34.4 104.265 37.5C104.265 37.5 101.065 48 108.865 54.9C116.765 61.9 125.265 57.9 125.265 57.9C125.265 57.9 121.965 68 130.565 74.3C137.865 79.7 145.265 77 145.265 77Z" fill="#4E3734"/>
  <path d="M148.565 50C162.373 50 173.565 38.8071 173.565 25C173.565 11.1929 162.373 0 148.565 0C134.758 0 123.565 11.1929 123.565 25C123.565 38.8071 134.758 50 148.565 50Z" fill="#4E3734"/>
  <path d="M121.465 239.6C121.465 239.6 120.465 246.4 119.665 250C118.865 253.6 118.065 256.2 118.065 256.2L126.665 273.7C126.665 273.7 127.065 259.2 125.465 251.1C123.865 243 121.465 239.6 121.465 239.6Z" fill="#362E2D"/>
  <path d="M57.5655 356.6C57.5655 356.6 47.6655 358.3 42.5655 358.9C37.4655 359.5 30.8654 361.2 30.2654 363.6C29.6654 366 38.4654 368.4 52.2654 369.9C66.0654 371.3 67.2655 372.9 68.4655 365.1C68.9655 361.5 69.8654 360.1 69.8654 360.1L57.5655 356.6Z" fill="#FF353A"/>
  <path d="M192.265 359.5C192.265 359.5 183.165 361.1 178.365 363.1C173.565 365.1 169.865 367.2 169.865 369.7C169.865 371.6 178.565 371 192.165 371.1C206.065 371.2 209.965 371.5 207.565 364C206.765 361.4 204.465 359.3 204.465 359.3L192.265 359.5Z" fill="#FF353A"/>
  <path d="M28.8655 151.6C28.8655 151.6 24.2655 145.9 21.0655 144.1C17.8655 142.3 12.3654 140.3 9.76545 138.8C7.16545 137.3 1.96546 133.8 0.46546 136.1C-1.03454 138.4 1.26545 142.4 4.86545 144.5C8.46545 146.7 14.0655 156.3 19.3655 157C24.6655 157.7 26.9655 157.9 26.9655 157.9L28.8655 151.6Z" fill="#DF8E89"/>
  <path d="M205.965 187.9C205.965 187.9 208.265 187 211.665 190.4C215.065 193.8 218.265 201.6 219.465 204.5C220.665 207.4 220.965 210.3 222.065 212.3C223.165 214.4 223.465 216.6 222.065 217.4C220.665 218.2 216.465 215 213.165 211.7C209.865 208.4 205.865 206.2 203.765 201.7C201.765 197.4 201.965 193.9 201.965 193.9L205.965 187.9Z" fill="#DF8E89"/>
  <path d="M30.3654 147C30.3654 147 45.9655 149.8 51.4655 150.8C56.9655 151.8 63.4655 153 63.4655 153C63.4655 153 78.9655 133.2 89.5655 122.3C100.165 111.5 105.965 104 121.665 104C141.865 104 165.565 129.6 178.465 144.7C193.365 162.2 207.565 185.5 207.565 185.5L199.765 197.3C199.765 197.3 181.665 183.6 174.465 179.6C167.265 175.6 156.765 170.3 156.765 170.3C156.765 170.3 160.565 180.6 163.165 192.1C165.765 203.6 166.165 210.4 166.165 210.4C166.165 210.4 149.465 221.7 120.065 223.4C90.6655 225.1 71.8654 218.9 71.8654 218.9C71.8654 218.9 73.4654 207.6 75.1654 200.2C76.8654 192.9 78.7654 186.4 78.7654 186.4C78.7654 186.4 68.1655 187.3 54.4655 182.5C36.6655 176.3 25.5655 162.4 25.5655 162.4L30.3654 147Z" fill="#7B6DCF"/>
  <path d="M78.6654 186.5C78.6654 186.5 76.1655 195.5 75.4655 198.7C74.7655 201.9 73.9655 205.9 73.9655 205.9C73.9655 205.9 105.365 175.2 112.165 167.7C118.965 160.2 131.065 146.9 130.765 135.2C130.465 123.5 128.165 120.9 128.165 120.9C128.165 120.9 129.565 128.4 126.865 136.1C123.065 146.8 107.265 160.7 99.7654 167.7C93.5654 173.6 78.6654 186.5 78.6654 186.5Z" fill="#6A5AC1"/>
  <path d="M147.765 138.9C147.765 138.9 151.865 150.7 153.465 156.2C155.065 161.7 156.665 170.3 156.665 170.3L162.665 173.4C162.665 173.4 158.365 160.9 155.665 154C152.965 147.1 147.765 138.9 147.765 138.9Z" fill="#6A5AC1"/>
  <path d="M151.165 178.3L150.665 182.6L153.865 185.4L149.765 186.2L148.065 190.1L145.965 186.4L141.665 186.1L144.565 182.9L143.665 178.8L147.465 180.5L151.165 178.3Z" fill="#FF6ED9"/>
  <path d="M166.065 210.5C166.065 210.5 165.965 208.8 165.565 205.6L163.565 208L160.065 207.7L161.965 210.7L160.665 213.6C164.265 211.7 166.065 210.5 166.065 210.5Z" fill="#FF6ED9"/>
  <path d="M82.7654 132.6L84.3654 135.4L85.6654 132.4L88.8654 131.7L86.3654 129.6L86.7654 126.4L84.7654 127.6C83.3654 129.1 81.9655 130.7 80.5655 132.4L82.7654 132.6Z" fill="#FF6ED9"/>
  <path d="M83.3654 221.6L86.8654 220.8L83.5655 218.1L83.9655 213.9L80.3654 216.2L76.4655 214.6L77.5655 218.7L76.2654 220.2C78.0654 220.6 80.4654 221.1 83.3654 221.6Z" fill="#FF6ED9"/>
  <path d="M133.765 207.7L136.165 208.4L138.065 206.7L138.165 209.2L140.365 210.5L138.065 211.4L137.465 213.8L135.865 211.9L133.465 212.1L134.765 210L133.765 207.7Z" fill="#FF6ED9"/>
  <path d="M85.7654 159.2L88.8654 160L91.3654 157.9L91.5655 161.2L94.2654 162.8L91.2654 164L90.5655 167.1L88.4655 164.6L85.2654 164.9L87.0655 162.2L85.7654 159.2Z" fill="#FF6ED9"/>
  <path d="M195.465 167.1L195.165 167.3L192.065 166.5L193.365 169.5L191.665 172.2L194.865 171.9L196.865 174.4L197.565 171.3L198.165 171.1C197.365 169.8 196.465 168.5 195.465 167.1Z" fill="#FF6ED9"/>
  <path d="M121.065 165.6L122.765 166L124.065 164.9L124.165 166.6L125.665 167.5L124.065 168.1L123.665 169.8L122.565 168.5L120.865 168.7L121.765 167.2L121.065 165.6Z" fill="#FF6ED9"/>
  <path d="M62.3654 176.9L63.7654 175.9V174.2L65.1654 175.2L66.7654 174.6L66.2654 176.3L67.3654 177.7H65.5655L64.5655 179.1L64.0655 177.4L62.3654 176.9Z" fill="#FF6ED9"/>
  <path d="M195.265 189.4L196.965 189.8L198.265 188.7L198.365 190.4L199.865 191.3L198.265 192L197.865 193.7L196.765 192.3L195.065 192.5L195.965 191L195.265 189.4Z" fill="#FF6ED9"/>
  <path d="M121.065 111.9L122.765 112.4L124.065 111.2L124.165 113L125.665 113.9L124.065 114.5L123.665 116.2L122.565 114.9L120.865 115L121.765 113.5L121.065 111.9Z" fill="#FF6ED9"/>
  <path d="M165.265 143.1L166.965 143.5L168.265 142.4L168.365 144.1L169.865 145L168.265 145.6L167.865 147.3L166.765 146L164.965 146.2L165.965 144.7L165.265 143.1Z" fill="#FF6ED9"/>
  <path d="M40.9655 159.7L43.8654 160.5L46.1654 158.5L46.3654 161.5L48.9655 163.1L46.1654 164.2L45.4655 167.2L43.5655 164.8L40.4655 165.1L42.1654 162.5L40.9655 159.7Z" fill="#FF6ED9"/>
  <path d="M102.965 190.1L108.165 194.1L114.265 192L112.165 198.1L115.965 203.3L109.565 203.2L105.765 208.5L103.865 202.3L97.7654 200.3L103.065 196.6L102.965 190.1Z" fill="#FF6ED9"/>
  <path d="M105.365 126.4L109.465 129.5L114.365 127.9L112.665 132.7L115.765 136.9L110.565 136.8L107.565 140.9L106.065 136L101.265 134.5L105.465 131.5L105.365 126.4Z" fill="#FF6ED9"/>
  <path d="M174.465 169.2L171.665 164.9L169.965 169.7L164.965 171L168.965 174.2L168.865 176.7C169.565 177.1 170.265 177.4 170.865 177.8L172.965 176.4L177.765 178.3L176.365 173.4L179.665 169.4L174.465 169.2Z" fill="#FF6ED9"/>
  <path d="M142.265 126.4L147.965 123.3L153.765 126.2L152.565 119.8L153.365 119C150.865 116.9 148.265 114.9 145.665 113.1L145.065 114.5L138.665 115.6L143.365 120L142.265 126.4Z" fill="#FF6ED9"/>
</svg>
